<svg width="106" height="49" viewBox="0 0 106 49" fill="none" xmlns="http://www.w3.org/2000/svg">
<path fill-rule="evenodd" clip-rule="evenodd" d="M44.1229 48.766L61.6673 27.4485C62.8935 25.9393 63.6481 24.4301 67.5154 24.4301C72.8919 24.4301 79.872 23.2039 85.7201 21.8834C93.8321 20.0912 100.623 16.6955 106 14.0544C104.491 16.9785 94.2094 19.9969 89.0215 22.7323C93.5491 21.6004 94.398 21.3174 98.8313 19.8082C95.5299 22.8266 91.6626 22.5437 86.2861 25.1847C90.2477 24.3358 90.4364 24.3358 94.3037 23.1096C91.9456 25.6564 87.418 25.2791 83.928 27.2599C87.5123 26.6939 87.2293 26.8826 90.5307 25.9393C88.1726 27.4485 84.2109 29.901 76.8536 32.9194L62.8935 36.1264C61.8559 36.3151 59.3092 36.5981 57.1397 38.6732C54.4043 41.4086 50.6313 44.6157 49.4994 45.3703C48.1788 46.4079 46.6696 48.2 44.1229 48.766ZM42.991 47.917L58.9319 27.3542C60.1581 25.7507 60.4411 23.6755 57.3283 22.5437C53.0837 20.9401 48.4618 20.5628 44.3115 18.865C35.7279 15.5636 30.7287 7.64032 25.6352 0C23.9373 3.30137 30.3514 7.45167 31.8606 11.6963C29.4082 9.24384 27.1444 6.69707 25.1636 3.86732C24.8806 7.73464 30.5401 10.1871 32.2379 14.4317C29.8798 12.3566 27.616 10.2814 25.7295 8.01762C25.0692 11.2247 31.7663 14.2431 32.6152 17.1671C30.3514 15.6579 28.1819 13.9601 26.5784 12.0736C26.9557 14.2431 29.2195 17.2615 33.8414 20.9401C38.2747 25.0904 45.5377 30.2783 45.7264 37.3527C45.7264 39.5221 44.7831 41.22 43.7456 43.1065C43.0853 44.3327 42.6137 46.0306 42.991 47.917Z" fill="#949599"/>
<path fill-rule="evenodd" clip-rule="evenodd" d="M0 48.4987H5.84814L10.4701 38.7833H21.7891L23.6755 48.4987H33.108L24.5245 13.7872H18.3934L0 48.4987ZM12.0736 35.4819L18.299 23.5969L21.0345 35.4819H12.0736Z" fill="#0D3F84"/>
</svg>
